:SAMPLES-PER-SECOND 30
:FULLY-SPECIFIED
:DEGREES
247
root  -5.59373 40.7936 -0.9152 1.35291 -85.9632 -3.32111
RightUpLeg  6.03591 -2.2577 0.0624764
RightLeg  -0.719105 -25.6639 1.38254
RightFoot  -2.39212 -0.158289 1.81405
RightToes  -3.11842e-008 1.75238e-005 3.56266e-009
Spine  -7.77597 -1.57644 -3.73911
Spine1  18.3841 -2.71363 4.53183
HEad  -19.233 2.68187 -2.65696
LeftShoulder1  3.20308 -5.83487 -28.2468
LeftArm  -20.3357 18.2634 -46.5714
LeftForeArm  159.833 -65.4066 -157.474
LeftHand  -0.871215 -6.18114 9.05204
RightShoulder  4.02714 7.38658 31.077
RightArm  2.31307 -18.5195 36.8194
RightForeArm  143.026 74.734 140.052
RightHand  -0.903408 10.3724 -7.02396
LeftUpLeg  3.86016 2.43545 4.9169
LeftLeg  2.30694 5.78394 0.401522
LeftFoot  -2.95902 0.364827 -4.73129
LeftToes  4.78904e-008 1.4679e-008 1.35657e-009
248
root  -5.52819 40.7898 -0.981882 1.2594 -86.7614 -2.97882
RightUpLeg  5.28724 -2.20392 0.0673942
RightLeg  -0.0461794 -24.9442 1.11924
RightFoot  -2.59096 -0.157278 1.82585
RightToes  -3.11842e-008 1.75238e-005 3.56266e-009
Spine  -7.46115 -1.14139 -2.91992
Spine1  16.5055 -2.0373 3.88647
HEad  -16.2275 3.80292 -3.96796
LeftShoulder1  2.97659 -5.29468 -27.7585
LeftArm  -29.8992 13.5493 -46.3386
LeftForeArm  152.197 -65.7996 -156.218
LeftHand  -0.589451 -5.62999 6.48898
RightShoulder  4.05149 7.52678 30.8228
RightArm  -3.08419 -12.1012 37.721
RightForeArm  142.173 74.5457 140.382
RightHand  -0.597631 9.38945 -5.06536
LeftUpLeg  3.63243 2.48563 4.96705
LeftLeg  2.28818 6.47633 0.338254
LeftFoot  -2.87107 0.376783 -4.85392
LeftToes  4.78904e-008 1.4679e-008 1.35657e-009
249
root  -5.4951 40.8009 -1.05559 0.838562 -87.4129 -2.22284
RightUpLeg  4.77421 -2.1489 0.0472646
RightLeg  0.012989 -24.3493 1.19871
RightFoot  -2.57588 -0.14205 1.60667
RightToes  -3.11842e-008 1.75238e-005 3.56266e-009
Spine  -7.30479 -0.537626 -2.22288
Spine1  14.5614 -1.21851 3.26044
HEad  -13.0728 4.03443 -5.01011
LeftShoulder1  2.73312 -4.76148 -26.9736
LeftArm  -38.95 7.34811 -45.91
LeftForeArm  142.264 -66.6984 -154.113
LeftHand  -0.355795 -4.11441 4.66248
RightShoulder  3.85262 7.42306 29.3237
RightArm  -9.24513 -5.75795 38.8303
RightForeArm  140.363 74.0484 141.326
RightHand  -0.356128 8.80267 -3.30912
LeftUpLeg  3.5844 2.47354 4.97372
LeftLeg  1.74595 7.158 0.279928
LeftFoot  -2.52667 0.397313 -4.95761
LeftToes  4.78904e-008 1.4679e-008 1.35657e-009
250
root  -5.49407 40.8151 -1.12174 3.70624 -87.2452 -4.43567
RightUpLeg  4.35191 -1.78111 0.382884
RightLeg  -0.662423 -24.9239 1.42782
RightFoot  -2.25648 -0.135088 1.51141
RightToes  -3.11842e-008 1.75238e-005 3.56266e-009
Spine  -7.40474 -0.29117 -1.17872
Spine1  12.3872 -0.667867 2.06818
HEad  -10.0154 4.45143 -5.08002
LeftShoulder1  2.60843 -4.59429 -26.083
LeftArm  -46.994 2.43041 -44.3964
LeftForeArm  132.449 -66.8912 -152.765
LeftHand  -0.35964 -2.86026 5.28989
RightShoulder  3.62071 7.1499 28.0158
RightArm  -14.3858 1.00269 39.3585
RightForeArm  137.229 74.1136 140.592
RightHand  -0.457932 8.63348 -4.1541
LeftUpLeg  2.94844 2.49652 5.17722
LeftLeg  1.49373 6.99883 0.253984
LeftFoot  -2.31594 0.416257 -5.0961
LeftToes  4.78904e-008 1.4679e-008 1.35657e-009
251
root  -5.51589 40.8291 -1.20944 1.9126 -86.8703 -2.05511
RightUpLeg  4.08942 -1.59666 0.503479
RightLeg  -1.38532 -25.5063 1.67394
RightFoot  -2.02415 -0.123686 1.34329
RightToes  -3.11842e-008 1.75238e-005 3.56266e-009
Spine  -6.63629 0.14491 0.223581
Spine1  9.13441 0.267854 -0.0529455
HEad  -6.62548 4.74531 -4.99591
LeftShoulder1  2.50564 -4.43089 -25.4218
LeftArm  -53.2167 -1.98762 -42.4496
LeftForeArm  126.175 -67.1647 -151.727
LeftHand  -0.371391 -2.22627 5.84875
RightShoulder  3.35053 6.8611 26.3001
RightArm  -19.3104 5.81493 39.6457
RightForeArm  135.273 73.555 141.621
RightHand  -0.604304 9.06608 -5.24045
LeftUpLeg  2.58013 2.33965 5.1638
LeftLeg  0.84255 6.81922 0.213073
LeftFoot  -1.9334 0.453025 -5.36283
LeftToes  4.78904e-008 1.4679e-008 1.35657e-009
252
root  -5.55629 40.8374 -1.29643 0.109436 -86.3419 0.145874
RightUpLeg  3.96888 -1.45387 0.598196
RightLeg  -1.85861 -26.0955 1.81642
RightFoot  -1.96927 -0.118746 1.2719
RightToes  -3.11842e-008 1.75238e-005 3.56266e-009
Spine  -6.38214 0.687433 1.90535
Spine1  7.24236 1.32826 -2.74184
HEad  -4.70051 4.02538 -5.22494
LeftShoulder1  2.41014 -4.20846 -25.0815
LeftArm  -58.3782 -6.03488 -40.267
LeftForeArm  123.288 -67.3112 -151.218
LeftHand  -0.339896 -1.95189 5.52504
RightShoulder  3.09928 6.52473 24.8087
RightArm  -23.9453 10.2781 39.4603
RightForeArm  135.373 72.7279 143.541
RightHand  -0.655705 8.48904 -5.8487
LeftUpLeg  2.42067 2.16208 5.11643
LeftLeg  0.196357 6.53455 0.231761
LeftFoot  -1.58476 0.48626 -5.58502
LeftToes  4.78904e-008 1.4679e-008 1.35657e-009
253
root  -5.59482 40.837 -1.37849 -1.09705 -85.7949 1.5011
RightUpLeg  3.97359 -1.32171 0.728637
RightLeg  -2.0171 -26.7203 1.77541
RightFoot  -2.00707 -0.114922 1.21466
RightToes  -3.11842e-008 1.75238e-005 3.56266e-009
Spine  -6.40584 1.22892 3.74095
Spine1  6.46573 2.35389 -5.51393
HEad  -3.43093 3.19109 -5.52846
LeftShoulder1  2.42778 -4.19203 -25.3859
LeftArm  -62.7307 -9.15664 -37.9868
LeftForeArm  126.644 -67.6496 -151.13
LeftHand  -0.515373 -3.42311 7.0514
RightShoulder  2.84859 6.07834 23.5801
RightArm  -27.805 14.5624 39.1221
RightForeArm  138.456 72.0551 145.422
RightHand  -0.628155 9.15692 -5.3899
LeftUpLeg  2.41231 2.1378 5.14673
LeftLeg  -0.214891 6.12588 0.185739
LeftFoot  -1.39403 0.510075 -5.76256
LeftToes  4.78904e-008 1.4679e-008 1.35657e-009
254
root  -5.64666 40.839 -1.47232 -2.36066 -85.5129 2.68097
RightUpLeg  4.14642 -1.27751 0.802711
RightLeg  -1.99176 -26.9957 1.74769
RightFoot  -2.13303 -0.107168 1.09366
RightToes  -3.11842e-008 1.75238e-005 3.56266e-009
Spine  -6.4298 1.8645 5.53461
Spine1  6.25657 3.49074 -8.34184
HEad  -2.96945 3.24039 -5.81503
LeftShoulder1  2.52506 -4.38725 -25.8626
LeftArm  -66.924 -10.7431 -36.3291
LeftForeArm  132.689 -67.336 -152.223
LeftHand  -0.566978 -4.07425 7.2104
RightShoulder  2.76913 5.95058 23.1138
RightArm  -30.6364 18.2143 38.1231
RightForeArm  141.87 71.0128 147.876
RightHand  -0.652169 9.36829 -5.49006
LeftUpLeg  2.85015 2.22459 5.24887
LeftLeg  -0.874095 5.77057 0.0826664
LeftFoot  -1.12855 0.544999 -6.02136
LeftToes  4.78904e-008 1.4679e-008 1.35657e-009
255
root  -5.69597 40.8328 -1.5558 -3.23853 -84.9611 3.14038
RightUpLeg  4.59272 -1.53548 0.7658
RightLeg  -1.67854 -27.255 1.79528
RightFoot  -2.49797 -0.105965 1.07195
RightToes  -3.11842e-008 1.75238e-005 3.56266e-009
Spine  -6.13323 2.16221 6.66244
Spine1  6.32766 4.15017 -10.1638
HEad  -3.11738 2.29718 -6.72177
LeftShoulder1  2.53253 -4.31491 -26.2665
LeftArm  -70.1067 -10.1104 -36.4649
LeftForeArm  136.794 -65.9501 -154.354
LeftHand  -0.474255 -3.4811 6.45211
RightShoulder  2.82327 6.14317 23.084
RightArm  -32.0677 21.2414 37.1791
RightForeArm  144.529 69.8906 150.087
RightHand  -0.881955 9.77054 -7.13361
LeftUpLeg  3.42048 2.26443 5.33282
LeftLeg  -1.15891 5.18442 0.138858
LeftFoot  -1.07772 0.569945 -6.27155
LeftToes  4.78904e-008 1.4679e-008 1.35657e-009
256
root  -5.74146 40.8243 -1.64921 -4.43573 -84.6661 3.83252
RightUpLeg  5.22864 -1.71897 0.767522
RightLeg  -1.64231 -27.3046 1.8735
RightFoot  -2.71102 -0.0923231 0.855229
RightToes  -3.11842e-008 1.75238e-005 3.56266e-009
Spine  -5.90597 2.4487 7.37781
Spine1  6.77658 4.78778 -11.5652
HEad  -3.69896 2.08273 -7.10627
LeftShoulder1  2.56603 -4.30398 -26.761
LeftArm  -72.1704 -7.3578 -37.3194
LeftForeArm  138.802 -63.8329 -156.777
LeftHand  -0.571065 -4.48534 6.99798
RightShoulder  3.00228 6.57474 23.6354
RightArm  -32.1217 23.5603 36.2766
RightForeArm  146.893 68.6641 152.164
RightHand  -0.821362 9.57232 -6.74618
LeftUpLeg  4.13271 2.27442 5.38849
LeftLeg  -1.47052 4.85366 0.232308
LeftFoot  -0.996831 0.586811 -6.41356
LeftToes  4.78904e-008 1.4679e-008 1.35657e-009
257
root  -5.79792 40.8159 -1.74282 -4.6004 -84.5823 3.41003
RightUpLeg  5.9354 -1.80042 0.917689
RightLeg  -1.59815 -27.3233 1.90875
RightFoot  -2.87553 -0.0814125 0.679288
RightToes  -3.11842e-008 1.75238e-005 3.56266e-009
Spine  -5.79702 2.908 7.91703
Spine1  7.5628 5.58495 -12.6191
HEad  -4.12923 1.71057 -7.06671
LeftShoulder1  2.55847 -4.17759 -27.2137
LeftArm  -72.714 -3.21348 -39.1955
LeftForeArm  139.192 -61.6141 -158.8
LeftHand  -0.515227 -4.27505 6.46865
RightShoulder  3.19371 7.0322 24.1875
RightArm  -31.4756 24.2364 35.9933
RightForeArm  149.078 67.4109 154.048
RightHand  -0.802836 9.76124 -6.53146
LeftUpLeg  4.8818 2.42124 5.611
LeftLeg  -1.56742 4.54496 0.315415
LeftFoot  -1.0498 0.60513 -6.64661
LeftToes  4.78904e-008 1.4679e-008 1.35657e-009
258
root  -5.85042 40.7977 -1.84385 -4.38599 -84.0486 2.55316
RightUpLeg  6.753 -1.98906 1.06124
RightLeg  -1.61249 -27.6766 2.06966
RightFoot  -3.09138 -0.0750357 0.572513
RightToes  -3.11842e-008 1.75238e-005 3.56266e-009
Spine  -5.99347 3.19815 8.19133
Spine1  9.0081 6.2311 -13.3007
HEad  -4.40655 0.664795 -6.43798
LeftShoulder1  2.68623 -4.40073 -27.9135
LeftArm  -72.4457 0.563937 -40.9326
LeftForeArm  141.052 -59.9291 -160.278
LeftHand  -0.52883 -4.38195 6.56456
RightShoulder  3.29142 7.15254 24.7933
RightArm  -30.041 24.337 35.8271
RightForeArm  151.894 66.6943 155.209
RightHand  -0.782885 10.2693 -6.18784
LeftUpLeg  5.36884 2.60082 5.90174
LeftLeg  -1.20895 3.73342 0.427212
LeftFoot  -1.30797 0.616808 -6.93331
LeftToes  4.78904e-008 1.4679e-008 1.35657e-009
